<?xml version="1.0" encoding="utf-8"?>
<!-- Generator: Adobe Illustrator 16.2.0, SVG Export Plug-In . SVG Version: 6.00 Build 0)  -->
<!DOCTYPE svg PUBLIC "-//W3C//DTD SVG 1.1//EN" "http://www.w3.org/Graphics/SVG/1.1/DTD/svg11.dtd">
<svg version="1.1" id="Режим_изоляции"
	 xmlns="http://www.w3.org/2000/svg" xmlns:xlink="http://www.w3.org/1999/xlink" x="0px" y="0px" width="300px" height="282px"
	 viewBox="0 0 300 282" enable-background="new 0 0 300 282" xml:space="preserve">
<g>
	<path fill-rule="evenodd" clip-rule="evenodd" fill="#278E84" d="M12.389,282c-4.093,0-7.808,0-12.039,0
		c-0.085-1.53-0.243-3.045-0.244-4.561C0.094,214.442,0.145,151.443,0,88.447c-0.01-4.875,1.783-7.58,5.92-9.879
		c45.611-25.36,91.171-50.811,136.654-76.399c4.903-2.76,8.742-2.993,13.913-0.082c44.974,25.313,90.075,50.398,135.311,75.241
		c5.953,3.27,8.233,6.896,8.202,13.806c-0.28,61.698-0.155,123.398-0.147,185.1c0,1.829,0,3.66,0,5.725c-4.245,0-7.949,0-12.189,0
		c-0.128-1.878-0.379-3.805-0.38-5.732c-0.019-60.403-0.057-120.807,0.087-181.21c0.01-4.158-1.274-6.371-4.921-8.385
		c-43.029-23.769-85.976-47.688-128.883-71.674c-2.865-1.601-4.993-1.652-7.897-0.022c-42.867,24.063-85.788,48.03-128.764,71.896
		c-3.191,1.772-4.339,3.763-4.333,7.427c0.118,60.69,0.084,121.379,0.069,182.07C12.641,278.164,12.482,279.999,12.389,282z"/>
	<path fill-rule="evenodd" clip-rule="evenodd" fill="#278E84" d="M242.604,175.962c-61.974,0-123.151,0-185.019,0
		c0,35.307,0,70.5,0,105.961c-4.371,0-8.058,0-12.257,0c-0.101-1.492-0.293-3.007-0.293-4.521
		c-0.015-45.123-0.019-90.243-0.001-135.364c0.002-6.579,1.845-8.344,8.554-8.344c64.098-0.005,128.194-0.005,192.293-0.001
		c7.596,0,9.23,2.222,9.128,9.906c-0.244,18.449-0.092,36.903-0.097,55.354c-0.005,26.235-0.008,52.473-0.013,78.709
		c0,1.284,0,2.566,0,4.186c-4.142,0-7.937,0-12.296,0C242.604,246.685,242.604,211.592,242.604,175.962z M57.751,163.138
		c2.185,0,3.9,0,5.617,0c38.662,0,77.324,0,115.985,0c19.62,0,39.239,0.016,58.858-0.033c1.681-0.004,4.136,0.828,4.194-2.215
		c0.091-4.707,0.023-9.416,0.023-14.347c-61.844,0-123.096,0-184.678,0C57.751,151.991,57.751,157.239,57.751,163.138z"/>
	<path fill-rule="evenodd" clip-rule="evenodd" fill="#278E84" d="M92.379,281.914c0-15.961,0-31.604,0-47.688
		c17.005,0,33.816,0,51.228,0c0-12.151,0-23.882,0-35.939c21.575,0,42.544,0,63.869,0c0,27.905,0,55.618,0,83.627
		C169.169,281.914,131.015,281.914,92.379,281.914z M156.249,233.704c13.227,0,25.922,0,38.84,0c0-7.01,0.113-13.623-0.123-20.226
		c-0.036-0.998-1.692-2.761-2.623-2.777c-11.093-0.193-22.191-0.183-33.283-0.017c-0.949,0.015-2.659,1.496-2.687,2.338
		C156.152,219.884,156.249,226.756,156.249,233.704z M105.104,247.037c0,7.721,0,14.854,0,22.247c12.868,0,25.456,0,38.352,0
		c0-7.495,0-14.744,0-22.247C130.582,247.037,117.995,247.037,105.104,247.037z M156.52,269.176c13.059,0,25.642,0,38.199,0
		c0-7.611,0-14.852,0-22.2c-12.865,0-25.354,0-38.199,0C156.52,254.426,156.52,261.673,156.52,269.176z"/>
	<path fill-rule="evenodd" clip-rule="evenodd" fill="#278E84" d="M64.573,111.542c0-3.955,0-7.78,0-11.921
		c12.413,0,24.73,0,37.383,0c0,3.916,0,7.725,0,11.921C89.634,111.542,77.217,111.542,64.573,111.542z"/>
	<path fill-rule="evenodd" clip-rule="evenodd" fill="#278E84" d="M168.688,111.737c-12.642,0-24.849,0-37.377,0
		c0-3.991,0-7.803,0-12.027c12.329,0,24.734,0,37.377,0C168.688,103.654,168.688,107.47,168.688,111.737z"/>
	<path fill-rule="evenodd" clip-rule="evenodd" fill="#278E84" d="M235.358,111.739c-12.631,0-24.839,0-37.396,0
		c0-4.092,0-8.002,0-12.169c12.54,0,24.855,0,37.396,0C235.358,103.65,235.358,107.466,235.358,111.739z"/>
</g>
</svg>
