<?xml version="1.0" encoding="utf-8"?>
<!-- Generator: Adobe Illustrator 16.2.0, SVG Export Plug-In . SVG Version: 6.00 Build 0)  -->
<!DOCTYPE svg PUBLIC "-//W3C//DTD SVG 1.1//EN" "http://www.w3.org/Graphics/SVG/1.1/DTD/svg11.dtd">
<svg version="1.1" id="Режим_изоляции"
	 xmlns="http://www.w3.org/2000/svg" xmlns:xlink="http://www.w3.org/1999/xlink" x="0px" y="0px" width="326px" height="282px"
	 viewBox="0 0 326 282" enable-background="new 0 0 326 282" xml:space="preserve">
<g>
	<g>
		<path fill="#278E84" d="M325.9,259.365c-0.088-4.749-0.172-9.66,0.017-14.465c0.362-9.289-3.999-14.189-12.97-14.568
			c-0.955-0.04-1.918-0.04-2.846-0.043l-112.713,0.003c-0.547-2.729,0.274-4.63,2.795-6.616
			c31.688-24.992,48.217-58.225,49.131-98.772c0.043-1.861,0.521-2.567,2.217-3.286c14.785-6.248,25.511-13.142,33.752-21.694
			c9.512-9.872,13.915-19.54,13.854-30.425c-0.037-6.636-2.223-8.765-8.988-8.765h-0.219c-4.525,0-9.051-0.004-13.572-0.007
			c-4.527-0.006-9.055-0.01-13.578-0.01c-11.152,0-19.67,0.028-27.61,0.087l-0.084,0.001c-2.205,0-3.335-0.645-4.479-2.555
			c-8.189-13.668-18.832-25.293-31.643-34.548C176.514,7.477,152.011-0.751,126.145-0.751c-8.252,0-16.766,0.845-25.304,2.509
			C65.958,8.561,38.419,27.6,18.993,58.346C6.528,78.069,0.162,100.172,0.069,124.045c-0.088,21.934-0.072,44.234-0.058,65.805
			c0.013,15.811,0.025,32.164-0.007,48.244c-0.019,11.84,4.145,22.697,11.726,30.579c7.639,7.94,18.283,12.353,29.971,12.416
			c18.24,0.106,37.992,0.16,60.381,0.16c22.767,0,45.915-0.054,68.301-0.104l2.611-0.006c12.225-0.027,21.956-7.873,23.674-19.078
			c0.283-1.858,0.751-2.059,2.503-2.059c18.321,0.04,36.646,0.055,54.968,0.068c11.113,0.01,22.226,0.018,33.358,0.033
			c0.729,0,1.524-0.06,2.293-0.117c0.76-0.055,1.547-0.115,2.254-0.115c1.224,0,2.011,0.18,2.401,0.55
			c0.658,0.618,0.563,2.548,0.477,4.251c-0.044,0.891-0.089,1.814-0.041,2.653c0.006,0.089,0.003,0.181,0.003,0.271
			c0,0.1,0,0.197,0.005,0.297c0.182,5.008,2.67,7.461,7.604,7.491c5.168,0.036,10.341,0.019,15.511-0.011
			c5.605-0.032,8-2.413,7.996-7.959C326,264.729,325.949,262,325.9,259.365z M314.188,261.344c0.015,1.805-0.689,2.412-2.476,2.26
			c-5.099-0.438-5.062-0.392-4.821-5.627c0.082-1.832,0.137-3.709-0.168-5.5c-0.396-2.311-1.953-3.819-4.281-4.262
			c-1.228-0.234-2.517-0.217-3.779-0.217c-32.837-0.012-65.676-0.012-98.516-0.012c-1.143,0-2.285,0-3.625,0
			c0-1.973,0-3.592,0-5.666c0.9,0,1.828,0,2.752,0c37.029,0.002,74.057,0.004,111.086,0.006c3.869,0,3.863,0.007,3.849,3.843
			C314.189,251.229,314.143,256.286,314.188,261.344z M239.177,73.855h46.8c-0.651,5.094-3.183,9.095-5.359,12.05
			c-8.4,11.401-20.751,17.932-31.857,23.101c-0.359-1.719-0.701-3.416-1.035-5.068c-0.918-4.564-1.785-8.876-2.959-13.166
			c-1.16-4.25-2.645-8.484-4.082-12.576C240.186,76.774,239.675,75.315,239.177,73.855z M184.352,249.178
			c-0.006,2.473-0.012,4.942-0.015,7.416c-0.009,7.736-3.983,11.659-11.845,11.659c-9.519-0.017-19.035-0.021-28.553-0.021
			l-36.651,0.01l-38.106-0.02c-9.322,0-18.647,0.002-27.985,0.008c-9.109,0-16.653-3.635-22.424-10.795
			c-4.088-5.072-5.976-11.353-5.948-19.761c0.057-17.173,0.057-34.633,0.06-51.521c0-15.397,0-31.317,0.043-46.979l0.005-1.181
			c0.021-8.632,0.045-17.556,0.769-26.258c1.269-15.297,6.286-30.351,14.91-44.741c12.571-20.976,30.263-36.464,52.584-46.03
			c13.725-5.883,28.123-8.863,42.793-8.863c3.629,0,7.336,0.181,11.017,0.542c33.025,3.234,59.919,18.501,79.939,45.372
			c15.457,20.748,22.658,44.639,21.406,71.009c-1.647,34.674-16.643,63.281-44.569,85.019c-5.062,3.941-7.498,8.846-7.448,14.999
			C184.387,235.756,184.37,242.576,184.352,249.178z"/>
		<path fill="#278E84" d="M185.434,68.809c-14.904-16.42-35.417-25.91-57.758-26.722c-1.02-0.037-2.054-0.056-3.072-0.056
			c-21.098,0-41.102,7.964-56.33,22.423c-15.259,14.493-24.31,34.189-25.486,55.464c-1.246,22.551,6.599,44.088,22.083,60.635
			c15.529,16.6,36.63,25.846,59.419,26.039h0.303c43.48,0,79.491-33.915,81.981-77.21
			C207.876,106.771,200.367,85.259,185.434,68.809z M194.029,122.391c0.367,19.056-6.607,36.964-19.639,50.433
			c-12.858,13.285-30.148,20.713-48.686,20.914c-0.255,0.002-0.511,0.004-0.766,0.004c-37.997,0-69.224-30.75-69.609-68.542
			c-0.392-38.357,30.64-69.909,69.174-70.333l0.632-0.003C162.406,54.864,193.313,85.156,194.029,122.391z"/>
		<path fill="#278E84" d="M124.71,95.832h-0.073c-7.424,0-14.463,2.963-19.818,8.341c-5.417,5.44-8.395,12.614-8.382,20.205
			c0.023,15.584,12.777,28.312,28.43,28.37h0.102c7.36,0,14.345-2.945,19.665-8.291c5.386-5.414,8.343-12.545,8.328-20.081
			C152.926,108.68,140.252,95.874,124.71,95.832z M124.396,108.779l0.106-0.002c4.364,0,8.392,1.633,11.345,4.595
			c2.889,2.9,4.476,6.821,4.472,11.038c-0.011,8.5-6.988,15.415-15.553,15.42c-4.236,0-8.202-1.644-11.17-4.627
			c-2.925-2.944-4.527-6.851-4.514-10.999C109.11,115.892,116.123,108.828,124.396,108.779z"/>
	</g>
</g>
</svg>
