<?xml version="1.0" encoding="utf-8"?>
<!-- Generator: Adobe Illustrator 16.2.0, SVG Export Plug-In . SVG Version: 6.00 Build 0)  -->
<!DOCTYPE svg PUBLIC "-//W3C//DTD SVG 1.1//EN" "http://www.w3.org/Graphics/SVG/1.1/DTD/svg11.dtd">
<svg version="1.1" id="Режим_изоляции"
	 xmlns="http://www.w3.org/2000/svg" xmlns:xlink="http://www.w3.org/1999/xlink" x="0px" y="0px" width="326px" height="352px"
	 viewBox="0 0 326 352" enable-background="new 0 0 326 352" xml:space="preserve">
<g>
	<path fill-rule="evenodd" clip-rule="evenodd" fill="#278E84" d="M267.984,116.704c4.985,18.558,9.944,37.019,15.021,55.924
		c-4.939,0.823-9.604,1.599-14.662,2.439c0,19.258,0,38.505,0,58.175c-6.145,0.992-11.957,1.958-17.781,2.862
		c-27.975,4.359-55.922,8.886-83.947,12.88c-5.081,0.723-10.514-0.505-15.716-1.298c-29.903-4.559-59.787-9.257-89.678-13.916
		c-0.751-0.116-1.484-0.362-2.517-0.618c0-19.054,0-38.055,0-57.477c-5.258-0.896-10.283-1.752-15.523-2.644
		c4.933-18.395,9.749-36.524,14.764-54.597c0.272-0.983,2.143-1.958,3.396-2.163c15.564-2.544,31.151-4.963,46.736-7.377
		c17.498-2.713,35.001-5.422,52.517-8.031c1.99-0.296,4.114-0.16,6.119,0.147C200.429,106.201,234.138,111.447,267.984,116.704z
		 M168.445,238.495c0.994,0,1.763,0.101,2.5-0.014c28.103-4.35,56.196-8.755,84.311-13.037c2.566-0.39,3.028-1.565,3.015-3.858
		c-0.082-13.864-0.035-27.728-0.051-41.591c-0.001-1.007-0.159-2.011-0.273-3.363c-28.281,4.378-56.324,8.714-84.514,13.075
		c-1.532-5.467-2.95-10.536-4.37-15.603c-0.206,0.073-0.412,0.146-0.617,0.221C168.445,195.671,168.445,217.016,168.445,238.495z
		 M68.883,177.142c-0.199,0.874-0.355,1.246-0.355,1.615c-0.021,14.516,0.038,29.025-0.09,43.536
		c-0.026,2.949,1.795,2.896,3.736,3.197c21.072,3.271,42.145,6.575,63.218,9.85c7.504,1.167,15.017,2.273,22.841,3.454
		c0-22.304,0-44.193,0-66.084c-0.209-0.042-0.421-0.086-0.631-0.128c-1.59,5.754-3.181,11.509-4.85,17.548
		C124.705,185.787,96.9,181.479,68.883,177.142z M155.526,141.294c-30.292-4.702-59.984-9.315-89.947-13.969
		c-3.496,12.639-6.895,24.922-10.423,37.676c30.241,4.697,60.017,9.32,89.955,13.968C148.628,166.239,152,154.046,155.526,141.294z
		 M181.075,178.557c30.049-4.669,59.763-9.285,89.789-13.95c-0.382-1.618-0.635-2.858-0.967-4.078
		c-2.678-9.741-5.571-19.424-7.957-29.234c-0.949-3.906-2.737-4.315-6.233-3.745c-19.396,3.162-38.83,6.1-58.248,9.127
		c-8.776,1.369-17.548,2.765-26.797,4.222C174.181,153.624,177.579,165.917,181.075,178.557z M94.521,121.079
		c0.015,0.196,0.027,0.393,0.04,0.589c0.465,0.122,0.923,0.284,1.392,0.358c16.339,2.559,32.662,5.232,49.029,7.605
		c6.85,0.994,13.947,2.588,20.667,1.76c20.508-2.535,40.887-6.114,61.314-9.295c1.007-0.157,2.005-0.38,4.082-0.779
		c-1.645-0.533-2.103-0.754-2.585-0.829c-20.945-3.226-41.888-6.457-62.842-9.616c-1.744-0.264-3.596-0.251-5.343,0.011
		c-14.313,2.134-28.616,4.343-42.917,6.561C109.742,118.625,102.134,119.865,94.521,121.079z"/>
	<path fill-rule="evenodd" clip-rule="evenodd" fill="#278E84" d="M245.263,34.936c-3.273-8.324-6.198-15.749-9.115-23.177
		c-0.426-1.084-0.935-2.152-1.209-3.275c-0.914-3.728,0.771-6.925,4.178-8.104c3.202-1.108,6.496,0.242,8.015,3.604
		c1.594,3.536,2.915,7.199,4.346,10.81c4.438,11.19,8.882,22.379,13.307,33.575c2.56,6.477,0.551,9.695-6.473,10.598
		c-15.134,1.944-30.262,3.938-45.393,5.9c-6.278,0.814-10.803-3.785-8.214-8.723c1.003-1.916,3.71-3.731,5.891-4.095
		c9.806-1.632,19.699-2.724,30.413-4.125c-1.5-1.044-2.341-1.722-3.262-2.258C147.123-6.926,30.752,48.941,14.889,152.69
		c-5.341,34.938,0.841,67.805,18.214,98.561c0.572,1.013,1.251,1.999,1.624,3.087c1.05,3.073,0.214,5.738-2.488,7.461
		c-2.823,1.799-5.703,1.497-8.122-0.935c-0.805-0.807-1.375-1.873-1.964-2.872c-56.045-94.914-0.475-220.037,107.424-241.722
		c39.271-7.892,76.645-2.394,111.941,16.731C242.424,33.493,243.349,33.949,245.263,34.936z"/>
	<path fill-rule="evenodd" clip-rule="evenodd" fill="#278E84" d="M80.744,317.084c3.504,8.91,6.659,16.836,9.731,24.793
		c1.688,4.364,0.674,7.656-2.713,9.367c-3.759,1.905-7.629,0.136-9.479-4.493c-4.514-11.303-8.953-22.632-13.421-33.952
		c-1.378-3.489-2.834-6.956-4.106-10.485c-1.799-4.984,0.325-8.464,5.592-9.156c15.768-2.073,31.541-4.113,47.318-6.104
		c4.496-0.567,7.747,1.745,8.258,5.647c0.5,3.817-2.121,6.771-6.707,7.388c-9.81,1.322-19.624,2.588-30.261,3.98
		c1.505,1.047,2.272,1.677,3.124,2.157c90.676,51.402,202.835-0.823,222.162-102.173c6.996-36.699,0.856-71.38-17.692-103.811
		c-1.662-2.904-2.864-6.013-0.244-8.54c1.52-1.464,4.422-2.515,6.419-2.161c1.873,0.335,3.866,2.473,4.958,4.321
		c10.263,17.35,16.835,36.07,20.146,55.95c12.529,75.211-30.224,150.795-101.275,178.009
		c-47.127,18.053-93.248,14.835-137.917-8.733C83.632,318.557,82.616,318.048,80.744,317.084z"/>
</g>
</svg>
