<?xml version="1.0" encoding="utf-8"?>
<!-- Generator: Adobe Illustrator 16.2.0, SVG Export Plug-In . SVG Version: 6.00 Build 0)  -->
<!DOCTYPE svg PUBLIC "-//W3C//DTD SVG 1.1//EN" "http://www.w3.org/Graphics/SVG/1.1/DTD/svg11.dtd">
<svg version="1.1" id="Слой_1" xmlns="http://www.w3.org/2000/svg" xmlns:xlink="http://www.w3.org/1999/xlink" x="0px" y="0px"
	 width="548px" height="152px" viewBox="0 0 548 152" enable-background="new 0 0 548 152" xml:space="preserve">
<g>
	<polygon fill="#278E84" points="133.056,138.933 133.056,138.933 13.092,138.933 13.092,13.066 139.204,13.066 139.204,129.604 
		152.296,148.758 152.296,0 0,0 0,152 141.988,152 	"/>
	<polygon fill="#278E84" points="101.131,48.568 76.148,85.111 51.171,48.568 26.185,85.111 26.185,103.436 51.171,66.889 
		76.148,103.436 101.131,66.889 126.113,103.436 126.113,85.113 	"/>
	<polygon fill="#101410" points="210.881,51.76 197.207,32.67 197.207,61.705 184.112,61.705 184.112,13.066 197.207,13.066 
		214.223,37.966 231.247,13.066 244.34,13.066 244.34,61.705 231.247,61.705 231.247,32.67 217.571,51.76 	"/>
	<polygon fill="#101410" points="294.959,13.066 308.054,13.066 308.054,61.705 294.959,61.705 294.959,30.491 269.43,61.705 
		256.337,61.705 256.337,13.066 269.43,13.066 269.43,44.284 	"/>
	<g>
		<path fill="#101410" d="M369.473,31.941c0,2.42-0.305,4.683-0.91,6.785c-0.608,2.108-1.638,3.948-3.092,5.52
			c-1.454,1.573-3.429,2.82-5.929,3.739c-2.496,0.919-5.637,1.379-9.417,1.379h-2.038c-2.618,0-5.175-0.022-7.676-0.073
			c-2.496-0.045-4.934-0.266-7.309-0.654v13.067h-13.091V13.066c4.169-0.482,8.546-0.847,13.131-1.091
			c4.58-0.241,9.078-0.362,13.486-0.362h2.042c4.072,0,7.44,0.461,10.107,1.382c2.669,0.918,4.801,2.166,6.4,3.738
			c1.6,1.574,2.717,3.422,3.345,5.554c0.633,2.127,0.949,4.379,0.949,6.75V31.941z M346.05,37.748c2.57,0,4.558-0.179,5.966-0.545
			c1.405-0.36,2.436-0.87,3.09-1.524c0.655-0.653,1.031-1.413,1.127-2.284c0.098-0.875,0.148-1.84,0.148-2.906
			c0-1.063-0.051-2.045-0.148-2.94c-0.096-0.895-0.461-1.657-1.089-2.283c-0.631-0.631-1.603-1.127-2.909-1.492
			c-1.313-0.362-3.203-0.546-5.675-0.546c-1.552,0-3.577,0.049-6.075,0.146c-2.496,0.1-4.956,0.27-7.382,0.51v13.21
			c2.279,0.289,4.438,0.474,6.473,0.545C341.613,37.712,343.772,37.748,346.05,37.748"/>
		<polygon fill="#101410" points="197.205,90.298 197.205,109.174 205.571,109.174 221.425,90.298 234.226,90.298 234.226,93.203 
			216.261,114.617 234.226,136.033 234.226,138.939 221.425,138.939 206.151,120.791 197.205,120.791 197.205,138.939 
			184.112,138.939 184.112,90.298 		"/>
		<path fill="#101410" d="M293.054,109.174c0,2.42-0.301,4.686-0.907,6.786c-0.606,2.106-1.638,3.948-3.091,5.519
			c-1.454,1.572-3.433,2.82-5.929,3.742c-2.496,0.916-5.638,1.377-9.421,1.377h-2.035c-2.619,0-5.176-0.024-7.674-0.074
			c-2.498-0.044-4.935-0.266-7.308-0.652v13.068h-13.096V90.298c4.172-0.482,8.549-0.847,13.131-1.086
			c4.582-0.246,9.078-0.366,13.491-0.366h2.036c4.076,0,7.443,0.462,10.111,1.382c2.666,0.918,4.801,2.165,6.4,3.739
			c1.6,1.572,2.713,3.424,3.345,5.553c0.632,2.131,0.945,4.379,0.945,6.749V109.174z M269.634,114.981
			c2.57,0,4.558-0.181,5.962-0.546c1.408-0.361,2.438-0.871,3.096-1.524c0.652-0.649,1.03-1.413,1.126-2.286
			c0.098-0.871,0.146-1.837,0.146-2.901c0-1.063-0.048-2.044-0.146-2.942c-0.096-0.896-0.461-1.655-1.093-2.286
			c-0.629-0.626-1.6-1.126-2.91-1.491c-1.307-0.361-3.197-0.539-5.669-0.539c-1.552,0-3.58,0.047-6.073,0.143
			c-2.498,0.098-4.96,0.266-7.383,0.511v13.21c2.277,0.289,4.433,0.473,6.471,0.546
			C265.197,114.943,267.354,114.981,269.634,114.981"/>
		<path fill="#101410" d="M302.778,112.73c0-3.292,0.41-6.389,1.236-9.293c0.825-2.9,2.267-5.43,4.329-7.586
			c2.062-2.148,4.836-3.857,8.328-5.115c3.487-1.26,7.876-1.891,13.165-1.891h2.616c5.285,0,9.676,0.631,13.166,1.891
			c3.491,1.258,6.267,2.967,8.33,5.115c2.061,2.156,3.503,4.686,4.325,7.586c0.828,2.904,1.238,6.001,1.238,9.293v3.776
			c0,3.291-0.41,6.391-1.238,9.292c-0.822,2.903-2.265,5.432-4.325,7.587c-2.063,2.151-4.839,3.858-8.33,5.116
			c-3.49,1.26-7.881,1.888-13.166,1.888h-2.616c-5.289,0-9.678-0.628-13.165-1.888c-3.492-1.258-6.267-2.965-8.328-5.116
			c-2.063-2.155-3.504-4.684-4.329-7.587c-0.826-2.901-1.236-6.001-1.236-9.292V112.73z M315.872,114.617
			c0,1.841,0.083,3.617,0.254,5.337c0.168,1.72,0.729,3.232,1.674,4.538c0.944,1.307,2.448,2.348,4.509,3.123
			c2.06,0.773,5.007,1.16,8.836,1.16c3.83,0,6.778-0.387,8.838-1.16c2.063-0.775,3.566-1.816,4.511-3.123
			c0.946-1.306,1.502-2.818,1.673-4.538c0.168-1.72,0.256-3.496,0.256-5.337c0-1.836-0.088-3.603-0.256-5.297
			c-0.171-1.691-0.727-3.193-1.673-4.502c-0.944-1.306-2.448-2.346-4.511-3.119c-2.06-0.775-5.008-1.162-8.838-1.162
			c-3.829,0-6.776,0.387-8.836,1.162c-2.061,0.773-3.564,1.813-4.509,3.119c-0.944,1.309-1.506,2.811-1.674,4.502
			C315.955,111.015,315.872,112.781,315.872,114.617"/>
		<path fill="#101410" d="M370.075,90.298c4.169-0.48,8.546-0.847,13.128-1.084c4.583-0.248,9.081-0.366,13.491-0.366h2.042
			c4.068,0,7.436,0.387,10.105,1.164c2.665,0.771,4.8,1.813,6.402,3.119c1.6,1.307,2.715,2.842,3.345,4.611
			c0.631,1.766,0.949,3.642,0.949,5.623v1.453c0,2.129-0.634,4.064-1.894,5.807c-1.262,1.745-3.517,3.051-6.765,3.919
			c1.892,0.438,3.492,0.995,4.8,1.672c1.311,0.679,2.355,1.45,3.126,2.321c0.778,0.874,1.333,1.805,1.675,2.797
			c0.337,0.994,0.51,2.021,0.51,3.086v1.454c0,1.981-0.341,3.856-1.019,5.624c-0.681,1.767-1.867,3.304-3.563,4.611
			c-1.698,1.305-3.979,2.348-6.838,3.119c-2.864,0.776-6.476,1.161-10.835,1.161h-2.042c-4.41,0-8.908-0.118-13.491-0.364
			c-4.582-0.241-8.959-0.605-13.128-1.084V90.298z M396.988,100.463c-1.798,0-3.942,0.049-6.438,0.145
			c-2.5,0.096-4.96,0.266-7.383,0.513v8.056h12.945c2.961,0,5.238-0.109,6.838-0.33c1.6-0.217,2.766-0.519,3.493-0.905
			c0.728-0.388,1.148-0.848,1.274-1.382c0.121-0.531,0.177-1.109,0.177-1.74c0-0.584-0.07-1.135-0.217-1.668
			c-0.144-0.531-0.568-1.007-1.271-1.418c-0.704-0.411-1.793-0.725-3.272-0.944C401.655,100.574,399.605,100.463,396.988,100.463
			 M383.167,120.789v7.33c2.423,0.246,4.883,0.414,7.383,0.512c2.496,0.098,4.715,0.143,6.657,0.143
			c2.908,0,5.172-0.108,6.798-0.322c1.625-0.22,2.837-0.533,3.64-0.945c0.797-0.414,1.28-0.885,1.454-1.418
			c0.171-0.533,0.252-1.084,0.252-1.668c0-0.484-0.072-0.956-0.217-1.416c-0.146-0.458-0.628-0.846-1.456-1.161
			c-0.823-0.314-2.133-0.566-3.925-0.761c-1.795-0.195-4.342-0.293-7.641-0.293H383.167z"/>
		<path fill="#101410" d="M433.441,128.194c1.938,0,3.238-0.46,3.892-1.378c0.655-0.92,1.031-2.277,1.126-4.066l1.455-32.449h44.371
			v48.639h-13.093v-37.025h-19.057l-0.947,22.289c-0.146,2.564-0.497,4.816-1.056,6.75c-0.554,1.938-1.432,3.555-2.617,4.864
			c-1.188,1.308-2.737,2.298-4.653,2.979c-1.919,0.677-4.281,1.013-7.091,1.013c-1.118,0-2.234-0.045-3.347-0.146
			c-1.117-0.098-2.111-0.289-2.981-0.581v-11.106c0.581,0.099,1.258,0.161,2.033,0.182
			C432.251,128.183,432.909,128.194,433.441,128.194"/>
		<polygon fill="#101410" points="534.905,90.298 548,90.298 548,138.939 534.905,138.939 534.905,107.722 509.377,138.939 
			496.282,138.939 496.282,90.298 509.377,90.298 509.377,121.516 		"/>
		<polygon fill="#101410" points="101.131,73.905 76.148,110.451 51.171,73.905 26.185,110.449 26.185,128.775 51.171,92.229 
			76.148,128.775 101.131,92.229 126.113,128.775 126.113,110.451 		"/>
		<polygon fill="#101410" points="116.251,37.474 116.251,45.347 101.131,23.229 76.148,59.774 76.148,37.474 66.288,37.474 
			66.288,45.347 51.169,23.229 26.187,59.774 26.187,78.099 51.169,41.551 76.148,78.099 101.131,41.551 126.113,78.099 
			126.113,37.474 		"/>
	</g>
</g>
</svg>
