<?xml version="1.0" encoding="utf-8"?>
<!-- Generator: Adobe Illustrator 16.2.0, SVG Export Plug-In . SVG Version: 6.00 Build 0)  -->
<!DOCTYPE svg PUBLIC "-//W3C//DTD SVG 1.1//EN" "http://www.w3.org/Graphics/SVG/1.1/DTD/svg11.dtd">
<svg version="1.1" id="Слой_1" xmlns="http://www.w3.org/2000/svg" xmlns:xlink="http://www.w3.org/1999/xlink" x="0px" y="0px"
	 width="548px" height="152px" viewBox="0 0 548 152" enable-background="new 0 0 548 152" xml:space="preserve">
<g>
	<polygon fill="#278E84" points="133.056,138.934 133.056,138.934 13.092,138.934 13.092,13.066 139.204,13.066 139.204,129.604 
		152.296,148.758 152.296,0 0,0 0,152 141.988,152 	"/>
	<polygon fill="#278E84" points="101.131,48.568 76.148,85.111 51.171,48.568 26.185,85.111 26.185,103.436 51.171,66.889 
		76.148,103.436 101.131,66.889 126.113,103.436 126.113,85.113 	"/>
	<polygon fill="#FFFFFF" points="210.881,51.76 197.207,32.67 197.207,61.705 184.112,61.705 184.112,13.066 197.207,13.066 
		214.223,37.966 231.247,13.066 244.34,13.066 244.34,61.705 231.247,61.705 231.247,32.67 217.571,51.76 	"/>
	<polygon fill="#FFFFFF" points="294.959,13.066 308.055,13.066 308.055,61.705 294.959,61.705 294.959,30.491 269.43,61.705 
		256.337,61.705 256.337,13.066 269.43,13.066 269.43,44.284 	"/>
	<g>
		<path fill="#FFFFFF" d="M369.473,31.941c0,2.42-0.305,4.683-0.91,6.785c-0.607,2.108-1.638,3.948-3.092,5.52
			c-1.453,1.573-3.429,2.82-5.929,3.739c-2.496,0.919-5.638,1.379-9.417,1.379h-2.038c-2.618,0-5.175-0.022-7.676-0.073
			c-2.496-0.045-4.935-0.266-7.31-0.654v13.067h-13.09V13.066c4.168-0.482,8.545-0.847,13.131-1.091
			c4.58-0.241,9.078-0.362,13.485-0.362h2.042c4.072,0,7.439,0.461,10.107,1.382c2.668,0.918,4.801,2.166,6.399,3.738
			c1.601,1.574,2.718,3.422,3.345,5.554c0.633,2.127,0.949,4.379,0.949,6.75v2.904H369.473z M346.05,37.748
			c2.57,0,4.558-0.179,5.966-0.545c1.405-0.36,2.437-0.87,3.09-1.524c0.655-0.653,1.031-1.413,1.127-2.284
			c0.099-0.875,0.148-1.84,0.148-2.906c0-1.063-0.051-2.045-0.148-2.94c-0.096-0.895-0.461-1.657-1.088-2.283
			c-0.631-0.631-1.604-1.127-2.91-1.492c-1.313-0.362-3.202-0.546-5.674-0.546c-1.553,0-3.578,0.049-6.076,0.146
			c-2.495,0.1-4.955,0.27-7.381,0.51v13.21c2.278,0.289,4.438,0.474,6.473,0.545C341.613,37.712,343.771,37.748,346.05,37.748"/>
		<polygon fill="#FFFFFF" points="197.205,90.298 197.205,109.174 205.571,109.174 221.425,90.298 234.226,90.298 234.226,93.203 
			216.261,114.617 234.226,136.033 234.226,138.939 221.425,138.939 206.151,120.791 197.205,120.791 197.205,138.939 
			184.112,138.939 184.112,90.298 		"/>
		<path fill="#FFFFFF" d="M293.055,109.174c0,2.42-0.302,4.686-0.908,6.786c-0.605,2.106-1.638,3.948-3.09,5.519
			c-1.455,1.572-3.434,2.82-5.93,3.742c-2.496,0.916-5.639,1.377-9.421,1.377h-2.035c-2.619,0-5.176-0.023-7.674-0.074
			c-2.498-0.043-4.935-0.266-7.308-0.651v13.067h-13.096V90.298c4.172-0.481,8.549-0.847,13.131-1.086
			c4.582-0.246,9.078-0.366,13.491-0.366h2.036c4.076,0,7.442,0.463,10.11,1.383c2.666,0.918,4.802,2.164,6.4,3.738
			c1.6,1.572,2.713,3.424,3.346,5.553c0.631,2.131,0.944,4.379,0.944,6.75v2.904H293.055z M269.634,114.98
			c2.57,0,4.558-0.181,5.962-0.545c1.408-0.361,2.438-0.871,3.096-1.524c0.652-0.649,1.031-1.413,1.127-2.286
			c0.098-0.871,0.146-1.837,0.146-2.9s-0.048-2.045-0.146-2.942c-0.096-0.896-0.461-1.655-1.094-2.286
			c-0.629-0.626-1.6-1.126-2.91-1.491c-1.307-0.36-3.196-0.539-5.668-0.539c-1.552,0-3.58,0.048-6.073,0.144
			c-2.498,0.098-4.96,0.266-7.383,0.511v13.21c2.277,0.289,4.433,0.473,6.471,0.546C265.197,114.943,267.354,114.98,269.634,114.98"
			/>
		<path fill="#FFFFFF" d="M302.777,112.73c0-3.293,0.41-6.39,1.236-9.293c0.825-2.9,2.268-5.431,4.329-7.586
			c2.063-2.148,4.837-3.857,8.328-5.115c3.487-1.26,7.876-1.891,13.165-1.891h2.616c5.284,0,9.676,0.631,13.166,1.891
			c3.491,1.258,6.267,2.967,8.33,5.115c2.061,2.155,3.503,4.686,4.325,7.586c0.828,2.903,1.238,6,1.238,9.293v3.775
			c0,3.291-0.41,6.391-1.238,9.292c-0.822,2.903-2.266,5.433-4.325,7.587c-2.063,2.151-4.839,3.858-8.33,5.116
			c-3.49,1.26-7.882,1.888-13.166,1.888h-2.616c-5.289,0-9.678-0.628-13.165-1.888c-3.491-1.258-6.267-2.965-8.328-5.116
			c-2.063-2.154-3.504-4.684-4.329-7.587c-0.826-2.901-1.236-6.001-1.236-9.292V112.73z M315.872,114.617
			c0,1.841,0.083,3.617,0.254,5.337c0.168,1.72,0.729,3.231,1.674,4.538s2.448,2.348,4.509,3.123c2.061,0.773,5.008,1.16,8.836,1.16
			c3.83,0,6.778-0.387,8.838-1.16c2.063-0.775,3.566-1.816,4.512-3.123s1.502-2.818,1.673-4.538c0.168-1.72,0.256-3.496,0.256-5.337
			c0-1.836-0.088-3.604-0.256-5.297c-0.171-1.691-0.728-3.193-1.673-4.502c-0.944-1.307-2.448-2.346-4.512-3.119
			c-2.06-0.775-5.008-1.162-8.838-1.162c-3.828,0-6.775,0.387-8.836,1.162c-2.061,0.773-3.563,1.813-4.509,3.119
			c-0.944,1.309-1.506,2.811-1.674,4.502C315.955,111.016,315.872,112.781,315.872,114.617"/>
		<path fill="#FFFFFF" d="M370.075,90.298c4.169-0.479,8.546-0.847,13.128-1.084c4.583-0.248,9.081-0.366,13.49-0.366h2.043
			c4.068,0,7.436,0.387,10.104,1.164c2.665,0.771,4.8,1.813,6.402,3.119c1.6,1.307,2.715,2.842,3.345,4.611
			c0.631,1.766,0.949,3.642,0.949,5.623v1.453c0,2.129-0.635,4.063-1.895,5.807c-1.262,1.745-3.517,3.051-6.765,3.919
			c1.892,0.438,3.492,0.995,4.8,1.672c1.311,0.679,2.355,1.45,3.127,2.321c0.777,0.874,1.332,1.805,1.674,2.797
			c0.338,0.994,0.511,2.021,0.511,3.086v1.454c0,1.981-0.341,3.856-1.02,5.624c-0.681,1.768-1.866,3.304-3.563,4.611
			c-1.698,1.305-3.979,2.348-6.839,3.119c-2.863,0.775-6.476,1.16-10.834,1.16h-2.043c-4.409,0-8.907-0.117-13.49-0.363
			c-4.582-0.241-8.959-0.605-13.128-1.084V90.298H370.075z M396.988,100.463c-1.799,0-3.942,0.049-6.438,0.145
			c-2.5,0.097-4.96,0.267-7.383,0.514v8.056h12.944c2.962,0,5.238-0.108,6.839-0.329c1.6-0.218,2.766-0.52,3.493-0.906
			s1.147-0.848,1.273-1.381c0.121-0.531,0.178-1.109,0.178-1.74c0-0.584-0.07-1.135-0.217-1.668
			c-0.145-0.531-0.568-1.008-1.271-1.418c-0.704-0.411-1.793-0.726-3.272-0.944C401.654,100.574,399.605,100.463,396.988,100.463
			 M383.167,120.789v7.33c2.423,0.246,4.883,0.414,7.383,0.512c2.496,0.098,4.716,0.143,6.657,0.143
			c2.908,0,5.172-0.107,6.798-0.321c1.625-0.22,2.837-0.533,3.64-0.945c0.797-0.414,1.28-0.885,1.455-1.418
			c0.17-0.532,0.252-1.084,0.252-1.668c0-0.483-0.072-0.956-0.218-1.416c-0.146-0.458-0.628-0.846-1.456-1.161
			c-0.822-0.314-2.133-0.566-3.925-0.761c-1.795-0.194-4.342-0.293-7.641-0.293L383.167,120.789L383.167,120.789z"/>
		<path fill="#FFFFFF" d="M433.441,128.193c1.938,0,3.237-0.459,3.892-1.377c0.655-0.92,1.031-2.277,1.126-4.066l1.455-32.449
			h44.371v48.639h-13.093v-37.024h-19.058l-0.946,22.289c-0.146,2.563-0.497,4.815-1.057,6.75c-0.554,1.938-1.432,3.555-2.617,4.864
			c-1.188,1.308-2.736,2.298-4.652,2.979c-1.919,0.678-4.281,1.014-7.092,1.014c-1.117,0-2.233-0.045-3.347-0.146
			c-1.117-0.098-2.11-0.289-2.98-0.581v-11.106c0.581,0.1,1.258,0.162,2.032,0.183C432.251,128.184,432.909,128.193,433.441,128.193
			"/>
		<polygon fill="#FFFFFF" points="534.905,90.298 548,90.298 548,138.939 534.905,138.939 534.905,107.723 509.377,138.939 
			496.282,138.939 496.282,90.298 509.377,90.298 509.377,121.516 		"/>
		<polygon fill="#FFFFFF" points="101.131,73.905 76.148,110.451 51.171,73.905 26.185,110.449 26.185,128.775 51.171,92.229 
			76.148,128.775 101.131,92.229 126.113,128.775 126.113,110.451 		"/>
		<polygon fill="#FFFFFF" points="116.251,37.474 116.251,45.347 101.131,23.229 76.148,59.774 76.148,37.474 66.288,37.474 
			66.288,45.347 51.169,23.229 26.187,59.774 26.187,78.1 51.169,41.551 76.148,78.1 101.131,41.551 126.113,78.1 126.113,37.474 		
			"/>
	</g>
</g>
</svg>
