<svg id="Режим_изоляции" data-name="Режим изоляции" xmlns="http://www.w3.org/2000/svg" viewBox="0 0 300 282"><defs><style>.cls-1{fill:#fff;stroke:#fff;stroke-miterlimit:10;stroke-width:8px;fill-rule:evenodd;}</style></defs><path class="cls-1" d="M16.52,277.77H4.84c-.08-1.48-.24-2.95-.24-4.42q0-91.67-.1-183.33c0-4.73,1.73-7.35,5.74-9.58Q76.61,43.54,142.8,6.33c4.75-2.67,8.48-2.9,13.49-.08q65.44,36.84,131.25,73c5.78,3.17,8,6.69,8,13.39-.27,59.85-.15,119.7-.14,179.55v5.55H283.53c-.12-1.82-.36-3.69-.36-5.56q0-87.88.08-175.77c0-4-1.24-6.18-4.77-8.14q-62.61-34.58-125-69.52c-2.78-1.55-4.84-1.6-7.66,0q-62.37,35-124.9,69.74c-3.1,1.72-4.21,3.65-4.2,7.2q.16,88.31.06,176.61C16.76,274.05,16.61,275.83,16.52,277.77Z"/><path class="cls-1" d="M239.83,174.91H60.36V277.7H48.47c-.1-1.45-.29-2.92-.29-4.39q0-65.66,0-131.3c0-6.38,1.79-8.1,8.3-8.1H243c7.37,0,9,2.16,8.86,9.61-.24,17.9-.09,35.8-.1,53.69q0,38.17,0,76.35v4.06H239.82C239.83,243.51,239.83,209.47,239.83,174.91ZM60.52,162.47h118q28.54,0,57.09,0c1.64,0,4,.8,4.07-2.15.09-4.56,0-9.13,0-13.91H60.52Z"/><path class="cls-1" d="M94.11,277.69V231.43H143.8V196.57h61.95v81.12Zm62-46.77h37.68c0-6.8.11-13.21-.12-19.62,0-1-1.64-2.67-2.55-2.69q-16.14-.29-32.28,0c-.92,0-2.58,1.45-2.61,2.27C156,217.52,156.06,224.18,156.06,230.92Zm-49.61,12.94v21.58h37.2V243.86Zm49.87,21.47h37.06V243.8H156.32Z"/><path class="cls-1" d="M67.14,112.43V100.86H103.4v11.57Z"/><path class="cls-1" d="M168.13,112.61H131.87V101h36.26Z"/><path class="cls-1" d="M232.8,112.62H196.52V100.81H232.8Z"/></svg>