<?xml version="1.0" encoding="utf-8"?>
<!-- Generator: Adobe Illustrator 24.1.3, SVG Export Plug-In . SVG Version: 6.00 Build 0)  -->
<svg version="1.1" id="Режим_изоляции"
	 xmlns="http://www.w3.org/2000/svg" xmlns:xlink="http://www.w3.org/1999/xlink" x="0px" y="0px" viewBox="0 0 326 282"
	 style="enable-background:new 0 0 326 282;" xml:space="preserve">
<style type="text/css">
	.st0{fill:#FFFFFF;stroke:#FFFFFF;stroke-width:8;stroke-miterlimit:10;}
</style>
<g>
	<g>
		<path class="st0" d="M320.9,256.7c-0.1-4.6-0.2-9.4,0-14c0.4-9-3.9-13.8-12.6-14.1c-0.9,0-1.9,0-2.8,0l-109.3,0
			c-0.5-2.6,0.3-4.5,2.7-6.4c30.7-24.2,46.7-56.4,47.6-95.7c0-1.8,0.5-2.5,2.1-3.2c14.3-6.1,24.7-12.7,32.7-21
			c9.2-9.6,13.5-18.9,13.4-29.5c0-6.4-2.2-8.5-8.7-8.5H286c-4.4,0-8.8,0-13.2,0c-4.4,0-8.8,0-13.2,0c-10.8,0-19.1,0-26.8,0.1l-0.1,0
			c-2.1,0-3.2-0.6-4.3-2.5c-7.9-13.2-18.3-24.5-30.7-33.5c-21.8-15.7-45.5-23.7-70.6-23.7c-8,0-16.3,0.8-24.5,2.4
			c-33.8,6.6-60.5,25-79.3,54.9C11.3,81,5.2,102.4,5.1,125.5C5,146.8,5,168.4,5,189.3c0,15.3,0,31.2,0,46.8c0,11.5,4,22,11.4,29.6
			c7.4,7.7,17.7,12,29.1,12c17.7,0.1,36.8,0.2,58.5,0.2c22.1,0,44.5-0.1,66.2-0.1l2.5,0c11.9,0,21.3-7.6,22.9-18.5
			c0.3-1.8,0.7-2,2.4-2c17.8,0,35.5,0.1,53.3,0.1c10.8,0,21.5,0,32.3,0c0.7,0,1.5-0.1,2.2-0.1c0.7-0.1,1.5-0.1,2.2-0.1
			c1.2,0,1.9,0.2,2.3,0.5c0.6,0.6,0.5,2.5,0.5,4.1c0,0.9-0.1,1.8,0,2.6c0,0.1,0,0.2,0,0.3c0,0.1,0,0.2,0,0.3
			c0.2,4.9,2.6,7.2,7.4,7.3c5,0,10,0,15,0c5.4,0,7.8-2.3,7.8-7.7C321,261.9,321,259.3,320.9,256.7z M309.6,258.6
			c0,1.7-0.7,2.3-2.4,2.2c-4.9-0.4-4.9-0.4-4.7-5.5c0.1-1.8,0.1-3.6-0.2-5.3c-0.4-2.2-1.9-3.7-4.1-4.1c-1.2-0.2-2.4-0.2-3.7-0.2
			c-31.8,0-63.7,0-95.5,0c-1.1,0-2.2,0-3.5,0c0-1.9,0-3.5,0-5.5c0.9,0,1.8,0,2.7,0c35.9,0,71.8,0,107.7,0c3.8,0,3.7,0,3.7,3.7
			C309.6,248.8,309.5,253.7,309.6,258.6z M236.8,76.9h45.4c-0.6,4.9-3.1,8.8-5.2,11.7c-8.1,11.1-20.1,17.4-30.9,22.4
			c-0.3-1.7-0.7-3.3-1-4.9c-0.9-4.4-1.7-8.6-2.9-12.8c-1.1-4.1-2.6-8.2-4-12.2C237.8,79.7,237.3,78.3,236.8,76.9z M183.7,246.8
			c0,2.4,0,4.8,0,7.2c0,7.5-3.9,11.3-11.5,11.3c-9.2,0-18.5,0-27.7,0l-35.5,0l-36.9,0c-9,0-18.1,0-27.1,0c-8.8,0-16.1-3.5-21.7-10.5
			c-4-4.9-5.8-11-5.8-19.2c0.1-16.6,0.1-33.6,0.1-49.9c0-14.9,0-30.4,0-45.5l0-1.1c0-8.4,0-17,0.7-25.5c1.2-14.8,6.1-29.4,14.5-43.4
			c12.2-20.3,29.3-35.3,51-44.6C97,19.9,111,17,125.2,17c3.5,0,7.1,0.2,10.7,0.5c32,3.1,58.1,17.9,77.5,44
			c15,20.1,22,43.3,20.7,68.8c-1.6,33.6-16.1,61.3-43.2,82.4c-4.9,3.8-7.3,8.6-7.2,14.5C183.7,233.8,183.7,240.4,183.7,246.8z"/>
		<path class="st0" d="M184.7,72c-14.4-15.9-34.3-25.1-56-25.9c-1,0-2-0.1-3-0.1c-20.5,0-39.8,7.7-54.6,21.7
			c-14.8,14-23.6,33.1-24.7,53.8c-1.2,21.9,6.4,42.7,21.4,58.8c15.1,16.1,35.5,25.1,57.6,25.2h0.3c42.1,0,77.1-32.9,79.5-74.8
			C206.5,108.8,199.2,87.9,184.7,72z M193.1,123.9c0.4,18.5-6.4,35.8-19,48.9c-12.5,12.9-29.2,20.1-47.2,20.3c-0.2,0-0.5,0-0.7,0
			c-36.8,0-67.1-29.8-67.5-66.4c-0.4-37.2,29.7-67.8,67.1-68.2l0.6,0C162.4,58.5,192.4,87.8,193.1,123.9z"/>
		<path class="st0" d="M125.9,98.2L125.9,98.2c-7.3,0-14.1,2.9-19.3,8.1c-5.3,5.3-8.1,12.2-8.1,19.6c0,15.1,12.4,27.4,27.6,27.5h0.1
			c7.1,0,13.9-2.9,19.1-8c5.2-5.2,8.1-12.2,8.1-19.5C153.2,110.6,140.9,98.2,125.9,98.2z M125.6,110.7l0.1,0c4.2,0,8.1,1.6,11,4.5
			c2.8,2.8,4.3,6.6,4.3,10.7c0,8.2-6.8,14.9-15.1,14.9c-4.1,0-8-1.6-10.8-4.5c-2.8-2.9-4.4-6.6-4.4-10.7
			C110.8,117.6,117.6,110.8,125.6,110.7z"/>
	</g>
</g>
</svg>
