<?xml version="1.0" encoding="utf-8"?>
<!-- Generator: Adobe Illustrator 24.1.3, SVG Export Plug-In . SVG Version: 6.00 Build 0)  -->
<svg version="1.1" id="Режим_изоляции"
	 xmlns="http://www.w3.org/2000/svg" xmlns:xlink="http://www.w3.org/1999/xlink" x="0px" y="0px" viewBox="0 0 326 352"
	 style="enable-background:new 0 0 326 352;" xml:space="preserve">
<style type="text/css">
	.st0{fill-rule:evenodd;clip-rule:evenodd;fill:#FFFFFF;stroke:#FFFFFF;stroke-width:8;stroke-miterlimit:10;}
</style>
<g>
	<path class="st0" d="M265.1,118.3c4.8,18,9.7,36,14.6,54.4c-4.8,0.8-9.3,1.6-14.3,2.4c0,18.7,0,37.4,0,56.6c-6,1-11.6,1.9-17.3,2.8
		c-27.2,4.2-54.4,8.6-81.6,12.5c-4.9,0.7-10.2-0.5-15.3-1.3c-29.1-4.4-58.1-9-87.2-13.5c-0.7-0.1-1.4-0.4-2.4-0.6
		c0-18.5,0-37,0-55.9c-5.1-0.9-10-1.7-15.1-2.6c4.8-17.9,9.5-35.5,14.4-53.1c0.3-1,2.1-1.9,3.3-2.1c15.1-2.5,30.3-4.8,45.4-7.2
		c17-2.6,34-5.3,51.1-7.8c1.9-0.3,4-0.2,6,0.1C199.4,108.1,232.2,113.2,265.1,118.3z M168.3,236.8c1,0,1.7,0.1,2.4,0
		c27.3-4.2,54.6-8.5,82-12.7c2.5-0.4,2.9-1.5,2.9-3.8c-0.1-13.5,0-27,0-40.4c0-1-0.2-2-0.3-3.3c-27.5,4.3-54.8,8.5-82.2,12.7
		c-1.5-5.3-2.9-10.2-4.2-15.2c-0.2,0.1-0.4,0.1-0.6,0.2C168.3,195.1,168.3,215.9,168.3,236.8z M71.5,177.1c-0.2,0.8-0.3,1.2-0.3,1.6
		c0,14.1,0,28.2-0.1,42.3c0,2.9,1.7,2.8,3.6,3.1c20.5,3.2,41,6.4,61.5,9.6c7.3,1.1,14.6,2.2,22.2,3.4c0-21.7,0-43,0-64.3
		c-0.2,0-0.4-0.1-0.6-0.1c-1.5,5.6-3.1,11.2-4.7,17.1C125.8,185.5,98.7,181.3,71.5,177.1z M155.7,142.3
		c-29.5-4.6-58.3-9.1-87.5-13.6c-3.4,12.3-6.7,24.2-10.1,36.6c29.4,4.6,58.4,9.1,87.5,13.6C149,166.5,152.3,154.7,155.7,142.3z
		 M180.6,178.5c29.2-4.5,58.1-9,87.3-13.6c-0.4-1.6-0.6-2.8-0.9-4c-2.6-9.5-5.4-18.9-7.7-28.4c-0.9-3.8-2.7-4.2-6.1-3.6
		c-18.9,3.1-37.8,5.9-56.6,8.9c-8.5,1.3-17.1,2.7-26.1,4.1C173.9,154.2,177.2,166.2,180.6,178.5z M96.4,122.6c0,0.2,0,0.4,0,0.6
		c0.5,0.1,0.9,0.3,1.4,0.3c15.9,2.5,31.8,5.1,47.7,7.4c6.7,1,13.6,2.5,20.1,1.7c19.9-2.5,39.8-5.9,59.6-9c1-0.2,1.9-0.4,4-0.8
		c-1.6-0.5-2-0.7-2.5-0.8c-20.4-3.1-40.7-6.3-61.1-9.4c-1.7-0.3-3.5-0.2-5.2,0c-13.9,2.1-27.8,4.2-41.7,6.4
		C111.2,120.2,103.8,121.4,96.4,122.6z"/>
	<path class="st0" d="M243,38.8c-3.2-8.1-6-15.3-8.9-22.5c-0.4-1.1-0.9-2.1-1.2-3.2c-0.9-3.6,0.7-6.7,4.1-7.9
		c3.1-1.1,6.3,0.2,7.8,3.5c1.5,3.4,2.8,7,4.2,10.5c4.3,10.9,8.6,21.8,12.9,32.6c2.5,6.3,0.5,9.4-6.3,10.3
		c-14.7,1.9-29.4,3.8-44.1,5.7c-6.1,0.8-10.5-3.7-8-8.5c1-1.9,3.6-3.6,5.7-4c9.5-1.6,19.2-2.6,29.6-4c-1.5-1-2.3-1.7-3.2-2.2
		C147.6-1.9,34.4,52.4,19,153.3c-5.2,34,0.8,65.9,17.7,95.8c0.6,1,1.2,1.9,1.6,3c1,3,0.2,5.6-2.4,7.3c-2.7,1.7-5.5,1.5-7.9-0.9
		c-0.8-0.8-1.3-1.8-1.9-2.8c-54.5-92.3-0.5-214,104.5-235c38.2-7.7,74.5-2.3,108.9,16.3C240.2,37.4,241.1,37.9,243,38.8z"/>
	<path class="st0" d="M83,313.2c3.4,8.7,6.5,16.4,9.5,24.1c1.6,4.2,0.7,7.4-2.6,9.1c-3.7,1.9-7.4,0.1-9.2-4.4
		c-4.4-11-8.7-22-13.1-33c-1.3-3.4-2.8-6.8-4-10.2c-1.7-4.8,0.3-8.2,5.4-8.9c15.3-2,30.7-4,46-5.9c4.4-0.6,7.5,1.7,8,5.5
		c0.5,3.7-2.1,6.6-6.5,7.2c-9.5,1.3-19.1,2.5-29.4,3.9c1.5,1,2.2,1.6,3,2.1c88.2,50,197.2-0.8,216-99.4
		c6.8-35.7,0.8-69.4-17.2-100.9c-1.6-2.8-2.8-5.8-0.2-8.3c1.5-1.4,4.3-2.4,6.2-2.1c1.8,0.3,3.8,2.4,4.8,4.2
		c10,16.9,16.4,35.1,19.6,54.4c12.2,73.1-29.4,146.6-98.5,173.1c-45.8,17.6-90.7,14.4-134.1-8.5C85.8,314.6,84.8,314.1,83,313.2z"/>
</g>
</svg>
