<svg xmlns="http://www.w3.org/2000/svg" viewBox="0 0 16000 16000"><defs><style>.a{fill:#2c2c2c;}.b{fill:#ffc000;}</style></defs><path class="a" d="M15798.8,6280.26c265.42,1146.63,273.59,2292.71-7.44,3438.17q-7791.12,2.24-15582.24,4.43c-283.27-1147.94-271.18-2296.71-9.6-3446.18Q7999.19,6278.45,15798.8,6280.26Z"/><path class="b" d="M15798.8,6280.26q-7799.62-1.8-15599.28-3.58C467.75,4993.2,1023.75,3851.49,1883.43,2859.44q6114.9-1,12229.79-2.05C14976,3850.16,15534.36,4992.84,15798.8,6280.26Z"/><path class="b" d="M209.12,9722.86q7791.12-2.21,15582.24-4.43c-255.29,1293.09-831.16,2428.35-1686.86,3425.81l-12209.26-1.91C1039.5,12147.33,465,11013.65,209.12,9722.86Z"/><path class="a" d="M14113.22,2857.39q-6114.9,1-12229.79,2.05C4419.88-899.21,11592.08-900.4,14113.22,2857.39Z"/><path class="a" d="M1895.24,13142.33l12209.26,1.91C11357.23,16899.77,4532.21,16898.7,1895.24,13142.33Z"/></svg>