<svg xmlns="http://www.w3.org/2000/svg" viewBox="0 0 16000 16000"><path d="M16000,7979.06v40c-4.31,26.22-11.93,52.37-12.44,78.65-45.1,2317.18-917.58,4271.66-2627.57,5827.5C11668.73,15464,9655.7,16124.72,7376,15978.89c-71.38-4.56-114.41-27-114.36-111.57q2.14-3378.34.43-6756.69c0-93.83,40-132.21,132.64-131.46,260.11,2.13,520.25.61,780.38.52,574.31-.2,821.18-247.21,821.19-822.09q.09-3968.64.42-7937.28c0-44.7,5.76-89.41,9.28-140.74,45.35,2.73,76.31,1.57,106.13,6.83q4972.08,877.26,6556.64,5671.29C15906.25,6476.13,15978.75,7225.25,16000,7979.06ZM9824.22,11371.5c.34-558.71-440.81-1004.1-995.64-1005.22-562.38-1.12-1019.21,447.79-1019.14,1001.5.07,551.79,455.38,1010.61,1005.07,1012.81C9372.23,12382.83,9823.89,11931.45,9824.22,11371.5Zm3689.32-1005.22c-560.94-.27-1009.57,448-1009.21,1008.34.36,551.6,458.72,1008.33,1009.57,1006,551.14-2.36,1004.17-454.18,1005.7-1003C14521.16,10816.28,14073.76,10366.54,13513.54,10366.28ZM12172,11369.61c.27-557-442.74-1002.48-997.76-1003.32-562.21-.85-1018.25,448.85-1016.85,1002.71s454.49,1009.74,1005.31,1011.6C11719.47,12382.48,12171.71,11929.48,12172,11369.61Z"/><path d="M7955.62,1.39h40c4.38,37.39,12.58,74.79,12.59,112.19q.89,3868.53,1.94,7737.06c.08,114.15-48.26,154.9-155.69,154.15-280.12-1.95-560.27-.31-840.4-.24-468.12.13-726.67,258.32-726.68,726.34q-.1,3471.68-.33,6943.35c0,41.09-4.32,82.17-7.38,136.75-60.55-11.44-110.09-18.57-158.53-30.27C2340,14867.35-234.55,11368.52,16.93,7485.6c217.87-3364,2523.26-6229.39,5761.58-7165.71C6490.33,114.08,7217.71,24.07,7955.62,1.39ZM7463.07,5609.73c.47-568.65-436.31-1014.56-997.8-1018.64-552.34-4-1006.14,446.75-1010,1003.22-3.88,561.08,443.23,1011.15,1004.78,1011.44C7018.88,6606,7462.6,6165.41,7463.07,5609.73Z"/></svg>