<svg xmlns="http://www.w3.org/2000/svg" viewBox="0 0 16000 16000"><path d="M7179.76,0,12814,5644.17c-2121.91,2029-4168.54,4155.19-6261.41,6219.87,1.4,76,55,96.92,87.3,131.65,73.5,79,150.87,154.44,228.06,229.9,1242.63,1214.81,2419.69,2494.55,3660.69,3711,13.21,13,24.16,28.23,37.27,43.74-50.8,31.2-101.66,16-149.87,16q-3052.8,1.26-6105.59.65c-218,0-496.52-115.49-670.65-257.63-188.31-153.71-308.47-355.53-388.62-574.17-42.93-117.09-65.3-251.08-65-384.54q3.68-1890.93,1.46-3781.87c0-2002.59-5.63-4005.22,4.81-6007.76,2.05-393.72,86.21-781.37,296.76-1128.41,81.29-134,163.91-265.75,263.33-388.15,380.22-468.11,834.82-863.5,1253.29-1294.06,421.34-433.51,853-857,1280.07-1284.86Z"/></svg>