<svg xmlns="http://www.w3.org/2000/svg" viewBox="0 0 16000 16000"><defs><style>.a{fill:#7700FF;}.b{fill:#FF4F12;}</style></defs><path class="a" d="M3644.54,15709.91c-335.19-179.46-458.49-504.22-458.8-838.35Q3181,9769.28,3212.92,4667c3.79-555.88,304.75-1012.54,691.38-1397.77C5004.37,2173.17,6110.77,1083.45,7205.81,0L12815,5611.73Q9702.11,8736.49,6562.11,11888.51c-878,870.18-1746.16,1750.66-2638.76,2605.62C3547.05,14854.56,3387.83,15224.05,3644.54,15709.91Z"/><path class="b" d="M3644.54,15709.91c-256.71-485.86-97.49-855.35,278.81-1215.78,892.6-855,1760.75-1735.44,2638.76-2605.62,1367.31,1351,2734.62,2702,4160.88,4111.23-2235.54,0-4366.46,2-6497.35-5.3-121.62-.42-243-77.48-364.48-118.87l-50.4-36.85,5.83,2.37-88.68-49.45,4.12,3.09-90.76-88.31Z"/><path class="a" d="M3641.27,15706.42l90.76,88.31Z"/><path class="a" d="M3727.91,15791.64l88.68,49.45Q3772.27,15816.36,3727.91,15791.64Z"/><path class="a" d="M3810.76,15838.72l50.4,36.85Q3836,15857.14,3810.76,15838.72Z"/></svg>