<svg xmlns="http://www.w3.org/2000/svg" viewBox="0 0 16000 16000"><defs><style>.a{fill:#141414;}</style></defs><path class="a" d="M13942.36,6298.46V5024.91c1028.79-213.38,2075.42,546.74,1995.71,1636.55-85.32,1153.91-944,2037.25-1725.61,2814.64-654.36,43.13-1304,42.23-1956,71.88,589.91-612.56,1277.4-1165.86,1839.43-1817.67C14531.94,7337.18,14818.27,6275,13942.36,6298.46Z"/><path class="a" d="M8438.13,5937.23c376-78.65,788.59-100.26,1169.09-171.9V11006H8438.13Z"/><path class="a" d="M16000,9658.78v1346.14H11978.69V9790.69C13317.53,9726.07,14663.28,9722,16000,9658.78Z"/><path class="a" d="M5395.48,6349c348.78-33.93,686.07-118.28,1025.44-122.3v4773c-65,11.74-782.83,15.75-1025.44,5.23Z"/><path class="a" d="M2674.74,6742.36c296.78-43.94,582.88-95,880.69-118.57V11000c-63.83,10.73-683.61,14.24-880.69,4.49Z"/><path class="a" d="M13699.24,5052.78V6341.56c-446.36,209.44-464.53,665.16-440.76,1102.64-408.14,21.45-827.59,86.51-1233.35,100.87C11908.37,6432.32,12511.42,5220.91,13699.24,5052.78Z"/><path class="a" d="M1590.76,7958.76v3040.57c-62,12.24-577.8,16.18-831.42,5.65V8041.4"/><path class="a" d="M0,7978.8c0-291.05-.72-579.29-.72-866.4L2325,6784.08s17.83,601.13,6.9,932.13"/><path class="a" d="M9853.81,11004.84v-1148c570.15-40.57,1142.29-44.8,1716.59-53.53v1201.54Z"/><path class="a" d="M11573.05,5474.74V6705.28c-578.87,36.78-1143.77,136.91-1719.11,172.45V5725.58"/><path class="a" d="M8110.7,11006.16h-1475v-1059c491.57-23.46,982.79-23.74,1475-48.42Z"/><path class="a" d="M10976.69,7691.56V8898.5c-368.77,21.69-746.17,41.3-1115.79,55.45-13.61-72-17.82-772.21-7.17-1174C10230.48,7764,10603.47,7704.41,10976.69,7691.56Z"/><path class="a" d="M5037.3,9993v1012H3752.37v-976.87C4183,10025,4605.33,10006.92,5037.3,9993Z"/><path class="a" d="M5036,6418.82V7425.6c-418.77,17.89-865.65,94-1283.41,127.14V6598"/><path class="a" d="M3752.57,9289.44V8317.73L4149,8277.78l430.05-48.1,7.23,1005.69"/></svg>