<svg xmlns="http://www.w3.org/2000/svg" viewBox="0 0 16000 16000"><defs><style>.a{fill:#00aeef;}</style></defs><path class="a" d="M4318.61,16000H4125.84c-286.49-56.41-545-159.48-739.18-394.75-393.7-476.89-232.71-1041.78-236.18-1569.89-15.46-2355,1374.23-4198.76,3634.67-4857.92,101.85-29.7,139.09-80.55,138.67-183.75q-4-987.57.57-1975.17c.69-118.42-46.71-168.61-158.37-199-769.38-209.54-1453-578-2038.86-1122-1272.93-1182-1674.38-2673.86-1590.84-4359,41.74-842,189-1091.44,989.52-1338.54h173.49c616.9,118.29,980,466.48,999.65,1116.64,12.38,410.59-3.63,822.76,25,1232,74.05,1059,842.12,1999.48,1890.38,2342,977.86,319.48,2092.18-9.45,2785.39-789.85,662-745.24,726.42-1636.3,705.2-2566.14C10686.26,516.12,10903.49,240.46,11682.47,0h192.77c281,53.7,533,159.86,725.18,383.74,409.19,476.71,246.1,1050.44,249.61,1584.87,15.4,2346-1381.32,4199.6-3631.43,4853-107.11,31.11-142,85.52-141.51,191.55q4.32,982.89-.52,1965.8c-.75,120.71,42.34,175.71,160.63,206.7,789.5,206.81,1481.91,593.55,2073.59,1154.8,1242.14,1178.27,1634.58,2656,1553.07,4319.09-41.16,839.9-192.51,1094.74-988.62,1340.46h-192.77c-278.12-52.25-527.21-157.53-717.3-378.6-429.29-499.23-242.22-1099.76-257.36-1659-30.88-1140.81-692.38-2166.22-1711-2577.55-1003.71-405.33-2141.36-164-2905.82,613.44-736.32,748.79-826.2,1682.64-796.11,2665.29C5320,15481.43,5095.89,15760.06,4318.61,16000Z"/><path class="a" d="M9868.72,13879.61c0,1053.88-827.65,1888.68-1870.94,1887.1-1031.47-1.56-1884.65-853.29-1882-1878.85,2.65-1044.07,845.39-1877.08,1898.41-1876.52C9045.92,12011.9,9868.72,12840.78,9868.72,13879.61Z"/></svg>